<?xml version="1.0" encoding="UTF-8" standalone="no"?>
<svg width="19px" height="14px" viewBox="0 0 19 14" version="1.1" xmlns="http://www.w3.org/2000/svg" xmlns:xlink="http://www.w3.org/1999/xlink" xmlns:sketch="http://www.bohemiancoding.com/sketch/ns">
    <!-- Generator: Sketch 3.3.3 (12081) - http://www.bohemiancoding.com/sketch -->
    <title>medium</title>
    <desc>Created with Sketch.</desc>
    <defs></defs>
    <g id="v2" stroke="none" stroke-width="1" fill="none" fill-rule="evenodd" sketch:type="MSPage">
        <g id="Desktop-Copy-9" sketch:type="MSArtboardGroup" transform="translate(-754.000000, -39.000000)" fill="#000000">
            <path d="M771.720257,41.0001874 C771.418319,41.0001874 770.71452,41.2915671 770.71452,41.539618 L770.71452,50.5475027 C770.71452,50.7961709 771.418319,51.0000441 771.687288,51.0000441 L772.720257,51.0000441 L772.720257,53 L766.034418,53 L766.034418,51.0000441 L767.37191,51.0000441 L767.37191,41.6665178 L767.139155,41.6665178 L763.920738,52.9999614 L761.428908,52.9999614 L758.252121,41.6665178 L758.011511,41.6665178 L758.011511,51.0000055 L759.348424,51.0000055 L759.348424,52.9999614 L754,52.9999614 L754,51.0000055 L754.741792,51.0000055 C755.033007,51.0000055 755.336951,50.7961709 755.336951,50.5474641 L755.336951,41.539618 C755.336951,41.2915285 755.033046,41.0001874 754.741792,41.0001874 L754,41.0001874 L754,39 L760.931401,39 L763.194576,46.9999008 L763.255473,46.9999008 L765.540973,39 L772.720257,39 L772.720257,41.0001874 L771.720257,41.0001874 Z" id="medium" sketch:type="MSShapeGroup"></path>
        </g>
    </g>
</svg>