<?xml version="1.0" encoding="UTF-8" standalone="no"?>
<svg width="20px" height="16px" viewBox="0 0 20 16" version="1.1" xmlns="http://www.w3.org/2000/svg" xmlns:xlink="http://www.w3.org/1999/xlink" xmlns:sketch="http://www.bohemiancoding.com/sketch/ns">
    <!-- Generator: Sketch 3.3.3 (12081) - http://www.bohemiancoding.com/sketch -->
    <title>twitter</title>
    <desc>Created with Sketch.</desc>
    <defs></defs>
    <g id="v2" stroke="none" stroke-width="1" fill="none" fill-rule="evenodd" sketch:type="MSPage">
        <g id="Desktop-Copy-9" sketch:type="MSArtboardGroup" transform="translate(-685.000000, -38.000000)" fill="#000000">
            <path d="M704.93115,39.8940133 C704.197747,40.2152515 703.409767,40.4323968 702.582626,40.5300296 C703.426818,40.0301377 704.075202,39.2385782 704.380553,38.2953207 C703.590354,38.758259 702.715332,39.0943786 701.783864,39.2754933 C701.038004,38.4904708 699.975232,38 698.799102,38 C696.540853,38 694.710032,39.8084164 694.710032,42.0390877 C694.710032,42.3556731 694.746196,42.6639525 694.815916,42.9596193 C691.417506,42.7911173 688.404444,41.1830806 686.387665,38.7392631 C686.035678,39.3358264 685.833992,40.0296763 685.833992,40.7699392 C685.833992,42.1713283 686.555872,43.4076762 687.653096,44.1320195 C686.982795,44.1110241 686.352279,43.9293326 685.80102,43.6267827 C685.800631,43.6436252 685.800631,43.6605446 685.800631,43.6775794 C685.800631,45.6346175 687.210173,47.2671105 689.080739,47.638261 C688.737667,47.7305102 688.376377,47.780038 688.003447,47.780038 C687.739944,47.780038 687.483798,47.7546588 687.234075,47.7074383 C687.754464,49.3120911 689.264557,50.4800692 691.053919,50.5125622 C689.654459,51.5960201 687.891296,52.2416881 685.975457,52.2416881 C685.645386,52.2416881 685.31991,52.2226153 685,52.1851234 C686.809605,53.3312985 688.959011,54 691.268217,54 C698.789526,54 702.902536,47.8451008 702.902536,42.5074095 C702.902536,42.3322935 702.898488,42.1581004 702.890663,41.9848302 C703.689698,41.4153765 704.382966,40.7039919 704.93115,39.8940133 L704.93115,39.8940133 Z" id="twitter" sketch:type="MSShapeGroup"></path>
        </g>
    </g>
</svg>