<?xml version="1.0" encoding="UTF-8" standalone="no"?>
<svg width="19px" height="18px" viewBox="0 0 19 18" version="1.1" xmlns="http://www.w3.org/2000/svg" xmlns:xlink="http://www.w3.org/1999/xlink" xmlns:sketch="http://www.bohemiancoding.com/sketch/ns">
    <!-- Generator: Sketch 3.3.3 (12081) - http://www.bohemiancoding.com/sketch -->
    <title>github</title>
    <desc>Created with Sketch.</desc>
    <defs></defs>
    <g id="v2" stroke="none" stroke-width="1" fill="none" fill-rule="evenodd" sketch:type="MSPage">
        <g id="Desktop-Copy-9" sketch:type="MSArtboardGroup" transform="translate(-787.000000, -37.000000)" fill="#000000">
            <path d="M799.502593,54.8998734 C799.411895,54.9322747 799.320671,54.9714699 799.227337,54.9876706 C798.86982,55.0509055 798.640968,54.8679947 798.638858,54.5058313 C798.634112,53.8332421 798.634112,53.1616981 798.645186,52.489109 C798.656787,51.7156576 798.638858,50.9521356 798.044579,50.3140382 C798.397877,50.2513259 798.712154,50.2074273 799.019576,50.1373986 C801.056049,49.6738504 802.113834,48.4007912 802.248825,46.28791 C802.317903,45.2123945 802.12438,44.2257213 801.40302,43.378583 C801.350816,43.3190063 801.348179,43.1836523 801.372963,43.0969004 C801.564904,42.3966133 801.509009,41.7125269 801.285429,41.0279178 C801.230062,40.8570269 801.13831,40.8042441 800.967988,40.8152187 C800.370018,40.8481427 799.822143,41.0561384 799.339127,41.375971 C798.873511,41.6858741 798.440062,41.7532898 797.886914,41.6278653 C796.668826,41.3555895 795.44283,41.435025 794.227379,41.7140947 C794.089751,41.746496 793.904665,41.70312 793.778638,41.6299557 C793.208088,41.2986258 792.637538,40.9767028 791.979455,40.8481427 C791.4706,40.7498934 791.426306,40.7749783 791.291315,41.2625663 C791.121521,41.8771466 791.104647,42.4922495 791.278132,43.110488 C791.302916,43.2003756 791.277077,43.3446139 791.216437,43.4109844 C789.868104,44.9019687 790.356393,47.7193177 791.264949,48.7984915 C791.971545,49.6367456 792.910158,50.0140645 793.952123,50.2100403 C794.134045,50.2434869 794.314913,50.2690944 794.496835,50.3004505 C794.340751,50.7028543 794.200486,51.0827862 794.041766,51.4564468 C794.010655,51.5285659 793.912048,51.5891878 793.831369,51.6194987 C792.809441,52.0124957 791.930942,51.7234966 791.346155,50.8042391 C791.03346,50.3140382 790.632177,49.947694 790.034207,49.8416057 C790.015223,49.8379475 789.995713,49.828018 789.978312,49.8306311 C789.817482,49.8724392 789.658234,49.9163378 789.497932,49.9591912 C789.588102,50.0835706 789.651907,50.2508033 789.772661,50.3255354 C790.279406,50.6432776 790.608975,51.0963738 790.826754,51.630996 C791.168979,52.4692501 791.83339,52.8429107 792.696597,52.9160751 C793.117918,52.9500442 793.543458,52.9213011 794.004854,52.9213011 C794.004854,53.441813 794.023837,54.0360118 793.996945,54.6275976 C793.983234,54.946385 793.659993,55.0739 793.272947,54.9432494 C792.246274,54.5951963 791.294479,54.0961111 790.472402,53.3947788 C787.504171,50.8606802 786.359908,47.6571281 787.346505,43.9074565 C788.329939,40.1698049 790.893195,37.8771486 794.725688,37.1575252 C800.028849,36.1635356 805.052535,39.9910749 805.578791,45.3263218 C805.994312,49.5322251 803.496442,53.4679431 799.502593,54.8998734 L799.502593,54.8998734 Z M794.503163,50.2805916 C794.499999,50.2879081 794.497889,50.2931341 794.494726,50.3004505 C794.504217,50.3020183 794.513709,50.3035861 794.523728,50.3051539 C794.53111,50.3056766 794.537438,50.3187416 794.503163,50.2805916 L794.503163,50.2805916 Z M792.1039,51.9429896 C792.186688,51.993682 792.265784,52.0579621 792.355427,52.08566 C792.38812,52.096112 792.448761,52.0224251 792.555805,51.9440348 C792.407104,51.8881163 792.31957,51.8389917 792.227291,51.8264493 C792.191434,51.8222684 792.14503,51.9022266 792.1039,51.9429896 L792.1039,51.9429896 Z M792.859536,52.0715497 C792.871664,52.126423 792.981872,52.1948839 793.046731,52.1938387 C793.109481,52.1927935 793.170649,52.1102223 793.233399,52.0631881 C793.176449,52.0114505 793.1195,51.9612806 792.944433,51.8050226 C792.906467,51.9137238 792.843717,52.001521 792.859536,52.0715497 L792.859536,52.0715497 Z M793.786548,51.850489 C793.708506,51.86878 793.642592,51.9403766 793.571405,51.9895012 C793.613063,52.0417614 793.65472,52.0903634 793.721688,52.172412 C793.813968,52.0887956 793.876718,52.0307868 793.939995,51.9743457 C793.887264,51.9288793 793.825569,51.8410821 793.786548,51.850489 L793.786548,51.850489 Z M791.488529,51.5405858 C791.531768,51.6215892 791.598737,51.6916179 791.689434,51.8060678 C791.750075,51.7078185 791.815989,51.6325638 791.804388,51.6174083 C791.746911,51.5426762 791.668869,51.4815317 791.591882,51.4256133 C791.586609,51.4214325 791.479565,51.5228173 791.488529,51.5405858 L791.488529,51.5405858 Z" id="github" sketch:type="MSShapeGroup"></path>
        </g>
    </g>
</svg>