<?xml version="1.0" encoding="UTF-8" standalone="no"?>
<svg width="16px" height="16px" viewBox="0 0 16 16" version="1.1" xmlns="http://www.w3.org/2000/svg" xmlns:xlink="http://www.w3.org/1999/xlink" xmlns:sketch="http://www.bohemiancoding.com/sketch/ns">
    <!-- Generator: Sketch 3.3.3 (12081) - http://www.bohemiancoding.com/sketch -->
    <title>instagram</title>
    <desc>Created with Sketch.</desc>
    <defs></defs>
    <g id="v2" stroke="none" stroke-width="1" fill="none" fill-rule="evenodd" sketch:type="MSPage">
        <g id="Desktop-Copy-9" sketch:type="MSArtboardGroup" transform="translate(-721.000000, -38.000000)" fill="#000000">
            <path d="M723.053658,38 L734.946342,38 C736.075764,38 736.999836,38.8361826 736.999836,40.0534935 L736.999836,51.9465065 C736.999836,53.1638174 736.075764,54 734.946342,54 L723.053658,54 C721.923908,54 721,53.1638174 721,51.9465065 L721,40.0534935 C721,38.8361826 721.923908,38 723.053658,38 L723.053658,38 L723.053658,38 Z M732.655301,39.7776683 C732.259058,39.7776683 731.935264,40.1016274 731.935264,40.4980338 L731.935264,42.2221469 C731.935264,42.618389 732.259058,42.9425124 732.655301,42.9425124 L734.463689,42.9425124 C734.859931,42.9425124 735.184055,42.618389 735.184055,42.2221469 L735.184055,40.4980338 C735.184055,40.1016274 734.859931,39.7776683 734.463689,39.7776683 L732.655301,39.7776683 L732.655301,39.7776683 Z M735.191611,44.7663432 L733.783408,44.7663432 C733.916638,45.2013553 733.988757,45.6621592 733.988757,46.1388983 C733.988757,48.8002259 731.761784,50.957544 729.015196,50.957544 C726.268771,50.957544 724.042127,48.8002259 724.042127,46.1388983 C724.042127,45.6618307 724.114082,45.201191 724.247477,44.7663432 L722.777997,44.7663432 L722.777997,51.5249653 C722.777997,51.8747164 723.064172,52.1610555 723.414087,52.1610555 L734.55585,52.1610555 C734.905765,52.1610555 735.19194,51.8748806 735.19194,51.5249653 L735.19194,44.7663432 L735.191611,44.7663432 L735.191611,44.7663432 Z M729.015032,42.8516659 C727.240485,42.8516659 725.801725,44.2455773 725.801725,45.9652549 C725.801725,47.6849325 727.240485,49.0788439 729.015032,49.0788439 C730.789743,49.0788439 732.228667,47.6849325 732.228667,45.9652549 C732.228667,44.2455773 730.789907,42.8516659 729.015032,42.8516659 L729.015032,42.8516659 Z" id="instagram" sketch:type="MSShapeGroup"></path>
        </g>
    </g>
</svg>